<svg width="22" height="22" viewBox="0 0 22 22" fill="none" xmlns="http://www.w3.org/2000/svg">
<path d="M14.18 21.5H7.32C6.07 21.5 4.95 21.01 3.8 19.95C3.05 19.26 2.96 18.59 3.02 18.15C3.18 16.84 4.76 15.98 5.81 15.41L6.17 15.21C9 13.59 12.52 13.59 15.35 15.21L15.71 15.41C16.75 15.98 18.33 16.84 18.49 18.15C18.54 18.59 18.45 19.26 17.7 19.95C16.55 21.01 15.43 21.5 14.18 21.5ZM10.75 15.51C9.41 15.51 8.07 15.85 6.91 16.52L6.52 16.74C5.94 17.06 4.57 17.8 4.5 18.35C4.48 18.52 4.66 18.72 4.81 18.86C5.68 19.66 6.45 20.02 7.32 20.02H14.18C15.04 20.02 15.82 19.66 16.69 18.86C16.84 18.72 17.02 18.52 17 18.35C16.93 17.81 15.57 17.06 14.99 16.74L14.6 16.52C13.43 15.85 12.09 15.51 10.76 15.51H10.75Z" fill="#CBD5E1"/>
<path d="M10.75 13C8.41 13 6.5 11.09 6.5 8.75C6.5 6.41 8.41 4.5 10.75 4.5C13.09 4.5 15 6.41 15 8.75C15 11.09 13.09 13 10.75 13ZM10.75 6C9.23 6 8 7.23 8 8.75C8 10.27 9.23 11.5 10.75 11.5C12.27 11.5 13.5 10.27 13.5 8.75C13.5 7.23 12.27 6 10.75 6Z" fill="#CBD5E1"/>
<path d="M19.9 15.5C19.8 15.5 19.69 15.48 19.6 15.44C19.22 15.27 19.05 14.83 19.22 14.45C19.74 13.27 20.01 12.02 20.01 10.72C20.01 5.64 15.86 1.51 10.76 1.51C5.66 1.51 1.5 5.63 1.5 10.71C1.5 12.01 1.77 13.26 2.29 14.44C2.46 14.82 2.29 15.26 1.91 15.43C1.53 15.6 1.09 15.43 0.92 15.05C0.31 13.68 0 12.22 0 10.71C0 4.81 4.82 0 10.75 0C16.68 0 21.5 4.81 21.5 10.71C21.5 12.22 21.19 13.68 20.58 15.05C20.46 15.33 20.18 15.5 19.89 15.5H19.9Z" fill="#CBD5E1"/>
</svg>
