<svg width="54" height="54" viewBox="0 0 54 54" fill="none" xmlns="http://www.w3.org/2000/svg">
<g clip-path="url(#clip0_1_8985)">
<path d="M14.963 9C11.737 9 9.10938 11.596 9.10938 14.7831C9.10938 17.9703 11.737 20.5663 14.963 20.5663C18.189 20.5663 20.8167 17.9703 20.8167 14.7831C20.8167 11.596 18.2021 9 14.963 9ZM14.963 16.7108C13.8964 16.7108 13.0118 15.8369 13.0118 14.7831C13.0118 13.7293 13.8964 12.8554 14.963 12.8554C16.0297 12.8554 16.9143 13.7165 16.9143 14.7831C16.9143 15.8498 16.0427 16.7108 14.963 16.7108Z" fill="#94A3B8"/>
<path d="M49.1525 4.14597C44.9639 0.0078125 38.8501 0.0078125 26.6745 0.0078125C14.4989 0.0078125 8.39806 0.0078125 4.20944 4.14597C0.0078125 8.28412 0.0078125 14.3243 0.0078125 26.3532C0.0078125 38.3821 0.0078125 44.4094 4.20944 48.5604C8.39806 52.6986 14.5119 52.6986 26.6745 52.6986C29.185 52.6986 31.4355 52.6986 33.4647 52.66C32.281 51.5805 31.3054 50.2825 30.5899 48.8303C29.3672 48.8303 28.0663 48.8303 26.6745 48.8303C20.0533 48.8303 15.3964 48.8303 12.0794 48.1877C12.1444 48.1106 12.1964 48.0464 12.2615 47.9693C22.3428 35.9146 32.7493 23.4745 47.1623 30.1701C47.9558 30.4399 48.7103 30.7741 49.4257 31.1725C49.7639 31.3652 50.1021 31.5709 50.4143 31.7893C51.494 32.4962 52.4566 33.3701 53.2761 34.3596C53.3411 32.0335 53.3411 29.3733 53.3411 26.3403C53.3411 14.3114 53.3411 8.27127 49.1525 4.13311V4.14597ZM49.4387 26.9829C32.0208 18.2954 19.468 33.3315 9.25659 45.5275C8.89237 45.9516 8.54115 46.3757 8.18993 46.7998C7.74765 46.517 7.33139 46.1958 6.96716 45.8231C3.91025 42.8158 3.91025 37.3154 3.91025 26.3532C3.91025 15.3909 3.91025 9.87769 6.96716 6.87046C10.0111 3.86323 15.5785 3.86323 26.6745 3.86323C37.7704 3.86323 43.3509 3.86323 46.3948 6.87046C49.4387 9.87769 49.4387 15.3909 49.4387 26.3532V26.9829Z" fill="#94A3B8"/>
<path d="M52.8887 39.8785C52.2773 37.8222 51.0285 36.023 49.3635 34.7251C47.5553 33.2857 45.2659 32.4375 42.7814 32.4375C36.9537 32.4375 32.2188 37.1154 32.2188 42.8728C32.2188 45.0576 32.8952 47.0881 34.0659 48.7716C35.1716 50.3652 36.7066 51.6375 38.5147 52.4214C39.8155 52.9997 41.2594 53.321 42.7814 53.321C48.609 53.321 53.344 48.6431 53.344 42.8728C53.344 41.8319 53.1879 40.8295 52.8887 39.8785ZM47.009 43.6568H43.5749V47.0495C43.5749 47.2937 43.4578 47.5122 43.2887 47.6536C43.1456 47.7692 42.9765 47.8335 42.7814 47.8335H42.7553C42.3391 47.8206 41.9879 47.4736 41.9879 47.0495V43.6568H38.5537C38.1244 43.6568 37.7602 43.3098 37.7602 42.8728C37.7602 42.4359 38.1244 42.0889 38.5537 42.0889H41.9879V38.6961C41.9879 38.272 42.3521 37.9251 42.7814 37.9251C43.2106 37.9251 43.5749 38.272 43.5749 38.6961V42.0889H47.009C47.4383 42.0889 47.8025 42.4487 47.8025 42.8728C47.8025 43.2969 47.4383 43.6568 47.009 43.6568Z" fill="#94A3B8"/>
</g>
<defs>
<clipPath id="clip0_1_8985">
<rect width="53.3333" height="53.3333" fill="white"/>
</clipPath>
</defs>
</svg>
