<svg width="21" height="22" viewBox="0 0 21 22" fill="none" xmlns="http://www.w3.org/2000/svg">
<path d="M6.12598 17.625C6.58447 19.3502 8.20148 20.625 10.126 20.625C12.0505 20.625 13.6675 19.3502 14.126 17.625M0.655898 13.3946C0.443248 14.7886 1.39398 15.7562 2.55803 16.2384C7.02079 18.0872 13.2312 18.0872 17.6939 16.2384C18.858 15.7562 19.8087 14.7886 19.5961 13.3946C19.4654 12.5379 18.8192 11.8245 18.3404 11.1279C17.7133 10.2043 17.651 9.1968 17.6509 8.125C17.6509 3.98286 14.2819 0.625 10.126 0.625C5.97011 0.625 2.60111 3.98286 2.60111 8.125C2.60101 9.1968 2.5387 10.2043 1.91159 11.1279C1.43282 11.8245 0.786588 12.5379 0.655898 13.3946Z" stroke="#1E40AF" stroke-width="1.25" stroke-linecap="round" stroke-linejoin="round"/>
</svg>
