<svg width="14" height="13" viewBox="0 0 14 13" fill="none" xmlns="http://www.w3.org/2000/svg">
<path d="M6.77394 10.3686V8.92645C6.53724 9.32848 6.15166 9.59478 5.81498 9.59478V6.6572C6.15166 6.6572 6.53724 6.9235 6.77394 7.32553V6.75361C6.77394 6.63357 6.87359 6.53624 6.99675 6.53624C7.1199 6.53624 7.21956 6.63357 7.21956 6.75361V7.32553C7.45625 6.9235 7.84183 6.6572 8.17852 6.6572V9.59478C7.84183 9.59478 7.45625 9.32848 7.21956 8.92645V10.3686C7.21956 10.3879 7.21314 10.4052 7.20832 10.423H10.7729C10.7879 10.2823 10.7979 10.1402 10.7979 9.99578V6.54397C10.7979 5.51582 10.408 4.56808 9.76403 3.84425C9.84426 3.90946 9.92223 3.98118 9.99576 4.05292C10.7667 4.80284 11.2435 5.83969 11.2435 6.9787C11.2435 5.83216 10.7667 4.79531 9.99576 4.04538C9.22484 3.29546 8.16426 2.82812 6.99675 2.82812C4.66171 2.82812 2.75 4.69315 2.75 6.97117V10.423H6.78517C6.78036 10.4052 6.77394 10.3879 6.77394 10.3686ZM4.07067 5.37927C3.83975 5.154 4.02695 4.60612 4.48878 4.15555C4.95062 3.705 5.51222 3.52237 5.74313 3.74766C5.97406 3.97293 5.78685 4.52081 5.32502 4.97137C4.86318 5.42193 4.30159 5.60456 4.07067 5.37927Z" fill="#FF1A41"/>
<path d="M9.76562 3.84375C10.4095 4.56758 10.7995 5.51531 10.7995 6.54346V9.99528C10.7995 10.1397 10.7895 10.2818 10.7745 10.4225H11.2451V6.9782C11.2451 5.83919 10.7683 4.80234 9.99736 4.05242C9.92383 3.98068 9.84585 3.90896 9.76562 3.84375Z" fill="#E20A39"/>
<path d="M7.22489 8.92145C7.46159 9.32349 7.84716 9.58978 8.18385 9.58978V6.65221C7.84716 6.65221 7.46159 6.9185 7.22489 7.32054V6.74862C7.22489 6.62858 7.12524 6.53125 7.00208 6.53125C6.87893 6.53125 6.77927 6.62858 6.77927 6.74862V7.32054C6.54258 6.9185 6.157 6.65221 5.82031 6.65221V9.58978C6.157 9.58978 6.54258 9.32349 6.77927 8.92145V10.3636C6.77927 10.3829 6.78569 10.4002 6.79051 10.418H7.21366C7.21847 10.4002 7.22489 10.3829 7.22489 10.3636V8.92145Z" fill="#EA0F3E"/>
<path d="M7.00304 2.31856C7.0953 2.31856 7.17015 2.24554 7.17015 2.15554V0.163026C7.17015 0.0730223 7.0953 0 7.00304 0C6.91079 0 6.83594 0.0730223 6.83594 0.163026V2.15554C6.83594 2.24554 6.91079 2.31856 7.00304 2.31856Z" fill="#F41444"/>
<path d="M3.49308 3.64038C3.52572 3.67223 3.56837 3.68815 3.61123 3.68815C3.6541 3.68815 3.69675 3.67223 3.72938 3.64038C3.79466 3.5767 3.79466 3.47354 3.72938 3.40985L2.28526 2.00089C2.21998 1.9372 2.11423 1.9372 2.04896 2.00089C1.98368 2.06457 1.98368 2.16773 2.04896 2.23142L3.49308 3.64038Z" fill="#F41444"/>
<path d="M2.2096 6.66406H0.167107C0.07485 6.66406 0 6.73708 0 6.82709C0 6.91709 0.07485 6.99012 0.167107 6.99012H2.2096C2.30186 6.99012 2.37671 6.91709 2.37671 6.82709C2.37671 6.73708 2.30186 6.66406 2.2096 6.66406Z" fill="#F41444"/>
<path d="M13.8346 6.66406H11.7921C11.6999 6.66406 11.625 6.73708 11.625 6.82709C11.625 6.91709 11.6999 6.99012 11.7921 6.99012H13.8346C13.9269 6.99012 14.0017 6.91709 14.0017 6.82709C14.0017 6.73708 13.9269 6.66406 13.8346 6.66406Z" fill="#F41444"/>
<path d="M10.3859 3.68815C10.4287 3.68815 10.4714 3.67223 10.504 3.64038L11.9481 2.23142C12.0134 2.16773 12.0134 2.06457 11.9481 2.00089C11.8829 1.9372 11.7771 1.9372 11.7118 2.00089L10.2677 3.40985C10.2024 3.47354 10.2024 3.5767 10.2677 3.64038C10.3003 3.67223 10.343 3.68815 10.3859 3.68815Z" fill="#F41444"/>
<path d="M11.5984 10.6394V12.2769C11.5984 12.3969 11.4984 12.4944 11.3759 12.4944H2.62094C2.49844 12.4944 2.39844 12.3969 2.39844 12.2769V10.6394C2.39844 10.5219 2.49844 10.4219 2.62094 10.4219H11.3759C11.4984 10.4219 11.5984 10.5219 11.5984 10.6394Z" fill="#236570"/>
<path d="M5.74793 3.74493C5.51702 3.51965 4.95543 3.70228 4.49358 4.15283C4.03175 4.6034 3.84455 5.15128 4.07548 5.37655C4.30639 5.60184 4.86798 5.41921 5.32983 4.96865C5.79165 4.51809 5.97886 3.97021 5.74793 3.74493Z" fill="#FF8DAB"/>
</svg>
