<svg width="19" height="19" viewBox="0 0 19 19" fill="none" xmlns="http://www.w3.org/2000/svg">
<g clip-path="url(#clip0_1_8997)">
<path d="M18.1959 10.4116L18.0595 8.26279C17.9742 6.81318 17.923 6.08837 17.6161 5.44884C17.2323 4.64729 16.5757 4.02481 15.7657 3.68372C15.1773 3.44496 14.5207 3.41085 13.523 3.41085L13.1734 2.53256C12.8664 1.74806 12.4827 0.767442 11.5106 0.289923C10.9308 0 10.2998 0 9.16567 0C8.03156 0 7.40055 0 6.8207 0.289923C5.84861 0.767442 5.46489 1.74806 5.15791 2.53256L4.8083 3.41085C3.81063 3.41085 3.15404 3.44496 2.56567 3.68372C1.75559 4.02481 1.099 4.64729 0.715278 5.44884C0.408302 6.08837 0.357139 6.81318 0.271867 8.26279L0.135433 10.4116C-0.0777449 13.9845 -0.188598 15.7752 0.988146 17.0543C2.18194 18.3333 3.95559 18.3333 7.49435 18.3333H10.837C14.3757 18.3333 16.1494 18.3333 17.3432 17.0543C18.5199 15.7752 18.4091 13.9845 18.1959 10.4116ZM9.16567 3.19767H9.17419C9.64318 3.19767 10.0269 3.5814 10.0269 4.05039C10.0269 4.51938 9.64318 4.9031 9.17419 4.9031C8.7052 4.9031 8.31295 4.51938 8.31295 4.05039C8.31295 3.5814 8.69667 3.19767 9.16567 3.19767ZM9.16567 13.8566C7.51993 13.8566 6.18117 12.5178 6.18117 10.8721C6.18117 9.22636 7.51993 7.8876 9.16567 7.8876C10.8114 7.8876 12.1502 9.22636 12.1502 10.8721C12.1502 12.5178 10.8114 13.8566 9.16567 13.8566Z" fill="#1E293B"/>
</g>
<defs>
<clipPath id="clip0_1_8997">
<rect width="18.3333" height="18.3333" fill="white"/>
</clipPath>
</defs>
</svg>
