<svg width="17" height="20" viewBox="0 0 17 20" fill="none" xmlns="http://www.w3.org/2000/svg">
<path d="M12.425 13.7773C12.425 14.7523 12.1562 15.6711 11.6937 16.4711C10.6875 18.1961 8.74375 19.3711 6.525 19.3711C3.26875 19.3711 0.625 16.8586 0.625 13.7773C0.625 11.4461 2.1375 9.43984 4.28125 8.60234C4.975 8.33359 5.73125 8.18359 6.525 8.18359C7.31875 8.18359 8.075 8.33359 8.76875 8.60234C9.03125 8.70234 9.28125 8.82109 9.51875 8.96484C11.2562 9.93359 12.425 11.7273 12.425 13.7773Z" fill="#05D58E"/>
<path d="M14.0595 1.40625C12.322 1.40625 10.9082 2.82 10.9082 4.5575C10.9082 6.295 12.322 7.70875 14.0595 7.70875C15.797 7.70875 17.2107 6.295 17.2107 4.5575C17.2107 2.82 15.797 1.40625 14.0595 1.40625Z" fill="#37D1FE"/>
<path d="M19.375 11.7188C19.375 14.65 16.9937 17.0313 14.0625 17.0313C11.1312 17.0313 8.75 14.65 8.75 11.7188C8.75 9.55 10.05 7.68125 11.9187 6.8625C12.575 6.56875 13.3 6.40625 14.0625 6.40625C14.8187 6.40625 15.5375 6.5625 16.1937 6.85625C18.0687 7.675 19.375 9.54375 19.375 11.7188Z" fill="#37D1FE"/>
<path d="M6.5259 2.5C4.61527 2.5 3.06152 4.05438 3.06152 5.96438C3.06152 7.87438 4.61527 9.42875 6.5259 9.42875C8.43652 9.42875 9.99027 7.87438 9.99027 5.96438C9.99027 4.05438 8.4359 2.5 6.5259 2.5Z" fill="#05D58E"/>
<path d="M8.76973 8.6C8.16348 9.11875 7.38223 9.43125 6.52598 9.43125C5.66973 9.43125 4.88848 9.11875 4.28223 8.6C4.97598 8.33125 5.73223 8.18125 6.52598 8.18125C7.31973 8.18125 8.07598 8.33125 8.76973 8.6ZM12.426 13.775C12.426 14.75 12.1572 15.6688 11.6947 16.4688C9.95098 15.6 8.75098 13.8 8.75098 11.7188C8.75098 10.7063 9.03223 9.76875 9.51973 8.9625C11.2572 9.93125 12.426 11.725 12.426 13.775ZM16.1947 6.85625C15.6385 7.38125 14.8822 7.70625 14.0572 7.70625C13.2322 7.70625 12.476 7.38125 11.9197 6.8625C12.576 6.56875 13.301 6.40625 14.0635 6.40625C14.8197 6.40625 15.5385 6.5625 16.1947 6.85625Z" fill="#138F72"/>
</svg>
