<svg width="17" height="17" viewBox="0 0 17 17" fill="none" xmlns="http://www.w3.org/2000/svg">
<path d="M3.0525 16.125C2.7225 16.125 2.4 16.095 2.0775 16.035C1.8825 15.9975 1.7175 15.8625 1.65 15.675C1.5825 15.4875 1.62 15.2775 1.74 15.1275C2.0925 14.6925 2.3325 14.175 2.4375 13.6125C2.4675 13.44 2.3775 13.23 2.1975 13.0425C0.78 11.6025 0 9.7125 0 7.7325C0.0075 3.4725 3.6225 0 8.07 0C12.5175 0 16.1325 3.4725 16.1325 7.74C16.1325 12.0075 12.5175 15.48 8.07 15.48H8.055C7.5375 15.48 7.02 15.435 6.51 15.3375C6.3075 15.3 6.0975 15.2625 6.0525 15.2625C6.0225 15.2775 5.82 15.3825 5.61 15.495C4.815 15.915 3.9375 16.1325 3.0525 16.1325V16.125ZM8.07 1.125C4.245 1.125 1.1325 4.095 1.1325 7.74C1.1325 9.4275 1.8 11.0325 3.0075 12.2625C3.4575 12.7125 3.6525 13.29 3.5475 13.83C3.4725 14.2425 3.3375 14.6325 3.1575 15C3.825 14.985 4.485 14.8125 5.085 14.4975C5.4825 14.2875 5.6775 14.1825 5.895 14.145C6.1125 14.115 6.315 14.145 6.72 14.2275C7.1625 14.31 7.5825 14.34 8.0625 14.355C11.8875 14.355 15 11.385 15 7.74C15 4.095 11.895 1.125 8.07 1.125Z" fill="#94A3B8"/>
<path d="M11.07 8.8125C10.6575 8.8125 10.32 8.475 10.32 8.0625C10.32 7.65 10.65 7.3125 11.07 7.3125C11.4825 7.3125 11.82 7.65 11.82 8.0625C11.82 8.475 11.4825 8.8125 11.07 8.8125ZM8.07 8.8125C7.6575 8.8125 7.32 8.475 7.32 8.0625C7.32 7.65 7.65 7.3125 8.07 7.3125C8.4825 7.3125 8.82 7.65 8.82 8.0625C8.82 8.475 8.4825 8.8125 8.07 8.8125ZM5.0775 8.8125C4.665 8.8125 4.3275 8.475 4.3275 8.0625C4.3275 7.65 4.6575 7.3125 5.0775 7.3125C5.49 7.3125 5.8275 7.65 5.8275 8.0625C5.8275 8.475 5.49 8.8125 5.0775 8.8125Z" fill="#94A3B8"/>
</svg>
