<svg width="20" height="20" viewBox="0 0 20 20" fill="none" xmlns="http://www.w3.org/2000/svg">
<path fill-rule="evenodd" clip-rule="evenodd" d="M10 18.7501C13.7944 18.7501 16.875 15.6694 16.875 11.8751C16.875 9.75006 15.8338 7.61693 14.5588 5.83131C12.7063 3.23818 10.3906 1.38693 10.3906 1.38693C10.2797 1.29829 10.142 1.25 10 1.25C9.85803 1.25 9.72027 1.29829 9.60938 1.38693C9.60938 1.38693 7.29375 3.23818 5.44125 5.83131C4.16625 7.61693 3.125 9.75006 3.125 11.8751C3.125 15.6694 6.20562 18.7501 10 18.7501Z" fill="#FF7043"/>
<path fill-rule="evenodd" clip-rule="evenodd" d="M10.7702 1.70898C11.5021 2.34523 13.1627 3.87898 14.5596 5.83398C15.8346 7.61961 16.8759 9.75273 16.8759 11.8777C16.8759 15.6721 13.7952 18.7527 10.0009 18.7527C8.79602 18.7527 7.61235 18.436 6.56842 17.8345C5.52449 17.2329 4.65696 16.3676 4.05273 15.3252C5.09972 15.9342 6.28964 16.2543 7.50086 16.2527C11.2952 16.2527 14.3759 13.1721 14.3759 9.37773C14.3759 7.25273 13.3346 5.11961 12.0596 3.33398C11.6562 2.77192 11.2259 2.22962 10.7702 1.70898Z" fill="#F15727"/>
<path fill-rule="evenodd" clip-rule="evenodd" d="M8.55621 11.79C8.24309 8.83192 9.10184 7.7138 9.48121 7.1513C9.52936 7.07951 9.5919 7.01852 9.66487 6.97219C9.73784 6.92585 9.81964 6.89519 9.90508 6.88215C9.99053 6.8691 10.0778 6.87395 10.1612 6.8964C10.2447 6.91885 10.3226 6.9584 10.39 7.01255C10.39 7.01255 11.9268 8.2413 13.1562 9.96192C14.0156 11.165 14.7106 12.6063 14.7106 14.0388C14.7101 15.2882 14.2136 16.4863 13.3302 17.3698C12.4468 18.2533 11.2487 18.75 9.99934 18.7507C8.74993 18.75 7.5519 18.2533 6.66849 17.3698C5.78509 16.4863 5.28858 15.2882 5.28809 14.0388C5.28809 12.8082 5.79746 11.5725 6.48934 10.485C6.67871 10.1875 6.90934 10.1169 7.09121 10.1057C7.28371 10.0944 7.51059 10.1538 7.71246 10.385C7.85184 10.5444 8.02246 10.9325 8.26121 11.3482C8.34496 11.4944 8.43996 11.6519 8.55621 11.79Z" fill="#FFC400"/>
<path fill-rule="evenodd" clip-rule="evenodd" d="M14.052 11.46C14.4508 12.2862 14.7102 13.165 14.7102 14.0406C14.7097 15.29 14.2132 16.4881 13.3298 17.3716C12.4463 18.2551 11.2483 18.7518 9.99891 18.7525C9.09979 18.7521 8.21952 18.4946 7.46187 18.0105C6.70422 17.5264 6.10078 16.8357 5.72266 16.02C6.28953 16.1718 6.88516 16.2525 7.49891 16.2525C10.5677 16.2525 13.1689 14.2375 14.052 11.46Z" fill="#E7B100"/>
</svg>
