<svg width="20" height="20" viewBox="0 0 20 20" fill="none" xmlns="http://www.w3.org/2000/svg">
<mask id="mask0_1_8681" style="mask-type:luminance" maskUnits="userSpaceOnUse" x="0" y="0" width="20" height="20">
<path d="M20 0H0V20H20V0Z" fill="white"/>
</mask>
<g mask="url(#mask0_1_8681)">
<path d="M19.6 10.2252C19.6 9.51609 19.5364 8.83429 19.4182 8.17969H10V12.0479H15.3818C15.15 13.2979 14.4455 14.357 13.3864 15.0661V17.5752H16.6182C18.5091 15.8343 19.6 13.2706 19.6 10.2252Z" fill="#4285F4"/>
<path d="M9.9989 19.9984C12.6989 19.9984 14.9625 19.1029 16.617 17.5757L13.3852 15.0666C12.4898 15.6666 11.3443 16.0211 9.9989 16.0211C7.3943 16.0211 5.1898 14.262 4.4034 11.8984H1.0625V14.4893C2.708 17.7575 6.0898 19.9984 9.9989 19.9984Z" fill="#34A853"/>
<path d="M4.4045 11.8987C4.2045 11.2987 4.0909 10.6578 4.0909 9.99871C4.0909 9.33961 4.2045 8.69871 4.4045 8.09871V5.50781H1.0636C0.3864 6.85781 0 8.38511 0 9.99871C0 11.6123 0.3864 13.1396 1.0636 14.4896L4.4045 11.8987Z" fill="#FBBC04"/>
<path d="M9.9989 3.9773C11.467 3.9773 12.7852 4.4818 13.8216 5.4727L16.6898 2.6045C14.958 0.9909 12.6943 0 9.9989 0C6.0898 0 2.708 2.2409 1.0625 5.5091L4.4034 8.1C5.1898 5.7364 7.3943 3.9773 9.9989 3.9773Z" fill="#E94235"/>
</g>
</svg>
