<svg width="21" height="22" viewBox="0 0 21 22" fill="none" xmlns="http://www.w3.org/2000/svg">
<path fill-rule="evenodd" clip-rule="evenodd" d="M7.79 0.8475C9.22 -0.2825 11.24 -0.2825 12.67 0.8475L19.24 6.0875C20.01 6.6875 20.48 7.5975 20.49 8.5775V17.3075C20.49 19.6275 18.59 21.4975 16.27 21.4975H14.33C13.26 21.4775 12.39 20.6075 12.39 19.5275V16.4475C12.39 16.0875 12.09 15.7775 11.71 15.7775H8.83C8.45 15.7775 8.15 16.0875 8.15 16.4475V19.5175C8.15 19.5875 8.14 19.6675 8.12 19.7275C8.01 20.7275 7.16 21.4975 6.14 21.4975H4.22C1.89 21.4975 0 19.6275 0 17.3075V8.5875C0 7.6075 0.47 6.6975 1.25 6.0975L7.79 0.8475ZM6.65 19.3475V16.4475C6.65 15.2475 7.63 14.2875 8.82 14.2775H11.71C12.91 14.2775 13.89 15.2375 13.89 16.4475V19.5275C13.89 19.7775 14.09 19.9875 14.35 19.9975H16.26C17.77 19.9975 18.98 18.7875 18.98 17.3075V8.5875C18.98 8.0775 18.73 7.5875 18.31 7.2775H18.3L11.72 2.0175C10.84 1.3175 9.59 1.3175 8.71 2.0175L2.17 7.2775H2.15C1.73 7.6075 1.49 8.0875 1.49 8.5975V17.3075C1.49 18.7875 2.7 19.9975 4.21 19.9975H6.13C6.41 19.9975 6.62 19.7775 6.62 19.5175C6.62 19.4575 6.62 19.3975 6.64 19.3475H6.65Z" fill="#1E40AF"/>
</svg>
