<svg width="22" height="19" viewBox="0 0 22 19" fill="none" xmlns="http://www.w3.org/2000/svg">
<path d="M20.03 1.51C18.69 0.16 16.91 0.12 13.67 0.03C11.7 -0.01 9.79 -0.01 7.82 0.03C4.58 0.12 2.8 0.16 1.46 1.51C0.12 2.86 0.08 4.6 0.01 7.76C0 8.26 0 8.75 0 9.25C0 9.75 0 10.24 0.01 10.74C0.08 13.9 0.12 15.64 1.46 16.99C2.8 18.34 4.59 18.38 7.83 18.46C8.81 18.49 9.78 18.5 10.75 18.5C11.72 18.5 12.68 18.49 13.67 18.46C16.9 18.38 18.69 18.34 20.03 16.99C21.38 15.64 21.41 13.9 21.48 10.74C21.5 9.74 21.5 8.75 21.48 7.76C21.41 4.6 21.38 2.86 20.03 1.51ZM2.52 2.57C3.44 1.65 4.83 1.61 7.86 1.53C9.8 1.48 11.69 1.48 13.63 1.53C16.67 1.61 18.05 1.65 18.97 2.57C19.14 2.74 19.28 2.93 19.4 3.14L13.46 6.51C11.15 7.82 10.34 7.82 8.03 6.51L2.09 3.14C2.21 2.93 2.35 2.74 2.52 2.57ZM19.98 10.71C19.92 13.66 19.89 15 18.97 15.93C18.05 16.85 16.66 16.88 13.63 16.96C11.69 17.01 9.8 17.01 7.86 16.96C4.83 16.88 3.44 16.85 2.52 15.93C1.6 15 1.57 13.66 1.51 10.71C1.49 9.73 1.49 8.76 1.51 7.79C1.54 6.44 1.56 5.42 1.66 4.63L7.29 7.82C8.68 8.6 9.71 9 10.75 9C11.79 9 12.81 8.6 14.2 7.82L19.83 4.63C19.93 5.42 19.95 6.44 19.98 7.79C20 8.76 20 9.73 19.98 10.71Z" fill="#CBD5E1"/>
</svg>
