<svg width="20" height="20" viewBox="0 0 20 20" fill="none" xmlns="http://www.w3.org/2000/svg">
<path d="M7.03396 2.59458C6.59193 2.59458 6.16801 2.77018 5.85545 3.08274C5.54289 3.3953 5.36729 3.81922 5.36729 4.26125V15.5579C5.36729 15.8011 5.3194 16.0419 5.22634 16.2665C5.13329 16.4912 4.99689 16.6953 4.82495 16.8672C4.65301 17.0392 4.44888 17.1756 4.22423 17.2686C3.99957 17.3617 3.75879 17.4096 3.51562 17.4096H15.5531C16.2898 17.4096 16.9962 17.117 17.5171 16.5961C18.038 16.0752 18.3306 15.3687 18.3306 14.6321V4.26042C18.3306 3.81839 18.155 3.39447 17.8425 3.08191C17.5299 2.76934 17.106 2.59375 16.664 2.59375H7.03396V2.59458Z" fill="#D8D8FF"/>
<path d="M5.3674 15.556V6.29688H3.33073C2.8887 6.29688 2.46478 6.47247 2.15222 6.78503C1.83966 7.09759 1.66406 7.52151 1.66406 7.96354V15.741C1.66406 16.1831 1.83966 16.607 2.15222 16.9196C2.46478 17.2321 2.8887 17.4077 3.33073 17.4077H3.51573C3.75889 17.4077 3.99968 17.3598 4.22433 17.2668C4.44899 17.1737 4.65311 17.0373 4.82506 16.8654C4.997 16.6934 5.13339 16.4893 5.22645 16.2646C5.3195 16.04 5.3674 15.7992 5.3674 15.556Z" fill="#B2B1FF"/>
<path d="M14.1693 7.5026H9.16927C8.94826 7.5026 8.7363 7.41481 8.58002 7.25853C8.42374 7.10225 8.33594 6.89028 8.33594 6.66927C8.33594 6.44826 8.42374 6.2363 8.58002 6.08002C8.7363 5.92374 8.94826 5.83594 9.16927 5.83594H14.1693C14.3903 5.83594 14.6022 5.92374 14.7585 6.08002C14.9148 6.2363 15.0026 6.44826 15.0026 6.66927C15.0026 6.89028 14.9148 7.10225 14.7585 7.25853C14.6022 7.41481 14.3903 7.5026 14.1693 7.5026ZM14.1693 10.8359H13.3359C13.1149 10.8359 12.903 10.7481 12.7467 10.5919C12.5904 10.4356 12.5026 10.2236 12.5026 10.0026C12.5026 9.78159 12.5904 9.56963 12.7467 9.41335C12.903 9.25707 13.1149 9.16927 13.3359 9.16927H14.1693C14.3903 9.16927 14.6022 9.25707 14.7585 9.41335C14.9148 9.56963 15.0026 9.78159 15.0026 10.0026C15.0026 10.2236 14.9148 10.4356 14.7585 10.5919C14.6022 10.7481 14.3903 10.8359 14.1693 10.8359ZM10.0026 10.8359H9.16927C8.94826 10.8359 8.7363 10.7481 8.58002 10.5919C8.42374 10.4356 8.33594 10.2236 8.33594 10.0026C8.33594 9.78159 8.42374 9.56963 8.58002 9.41335C8.7363 9.25707 8.94826 9.16927 9.16927 9.16927H10.0026C10.2236 9.16927 10.4356 9.25707 10.5919 9.41335C10.7481 9.56963 10.8359 9.78159 10.8359 10.0026C10.8359 10.2236 10.7481 10.4356 10.5919 10.5919C10.4356 10.7481 10.2236 10.8359 10.0026 10.8359ZM14.1693 14.1693H13.3359C13.1149 14.1693 12.903 14.0815 12.7467 13.9252C12.5904 13.7689 12.5026 13.557 12.5026 13.3359C12.5026 13.1149 12.5904 12.903 12.7467 12.7467C12.903 12.5904 13.1149 12.5026 13.3359 12.5026H14.1693C14.3903 12.5026 14.6022 12.5904 14.7585 12.7467C14.9148 12.903 15.0026 13.1149 15.0026 13.3359C15.0026 13.557 14.9148 13.7689 14.7585 13.9252C14.6022 14.0815 14.3903 14.1693 14.1693 14.1693ZM10.0026 14.1693H9.16927C8.94826 14.1693 8.7363 14.0815 8.58002 13.9252C8.42374 13.7689 8.33594 13.557 8.33594 13.3359C8.33594 13.1149 8.42374 12.903 8.58002 12.7467C8.7363 12.5904 8.94826 12.5026 9.16927 12.5026H10.0026C10.2236 12.5026 10.4356 12.5904 10.5919 12.7467C10.7481 12.903 10.8359 13.1149 10.8359 13.3359C10.8359 13.557 10.7481 13.7689 10.5919 13.9252C10.4356 14.0815 10.2236 14.1693 10.0026 14.1693Z" fill="#6563FF"/>
</svg>
