<svg width="28" height="30" viewBox="0 0 28 30" fill="none" xmlns="http://www.w3.org/2000/svg">
<path d="M27.7812 16.692C27.0742 19.378 23.7334 21.276 17.0514 25.0722C10.592 28.7418 7.3624 30.5768 4.75966 29.8392C3.6836 29.5342 2.70318 28.9552 1.91248 28.1574C3.57628e-07 26.2278 0 22.4852 0 15C0 7.5148 3.57628e-07 3.7722 1.91248 1.84264C2.70318 1.0449 3.6836 0.465761 4.75966 0.160841C7.3624 -0.576699 10.592 1.25814 17.0514 4.92786C23.7334 8.72394 27.0742 10.622 27.7812 13.308C28.073 14.4168 28.073 15.5832 27.7812 16.692Z" fill="white"/>
</svg>
