<svg width="20" height="20" viewBox="0 0 20 20" fill="none" xmlns="http://www.w3.org/2000/svg">
<g clip-path="url(#clip0_4697_68)">
<path d="M5.48551 3.71786L3.7177 5.48567C3.60162 5.60175 3.50954 5.73955 3.44672 5.89121C3.3839 6.04287 3.35156 6.20542 3.35156 6.36958C3.35156 6.53373 3.3839 6.69629 3.44672 6.84795C3.50954 6.99961 3.60162 7.13741 3.7177 7.25348L5.24083 8.77786C5.34602 8.88778 5.48652 8.95722 5.63774 8.97402C5.78895 8.99081 5.94126 8.9539 6.06801 8.86973C6.14227 8.81712 6.20414 8.74893 6.24929 8.66992C6.29445 8.59091 6.32181 8.50299 6.32946 8.4123C6.33711 8.32162 6.32486 8.23036 6.29358 8.14491C6.26229 8.05945 6.21272 7.98185 6.14833 7.91755L6.5902 8.35817L8.35801 6.59036L7.91614 6.14817C7.98045 6.21256 8.05804 6.26213 8.1435 6.29342C8.22896 6.32471 8.32022 6.33695 8.4109 6.32931C8.50158 6.32166 8.5895 6.2943 8.66851 6.24914C8.74752 6.20398 8.81571 6.14211 8.86833 6.06786C8.95249 5.94111 8.98941 5.7888 8.97261 5.63758C8.95581 5.48636 8.88638 5.34586 8.77645 5.24067L7.25333 3.71755C7.13723 3.60149 6.99941 3.50943 6.84774 3.44663C6.69607 3.38384 6.53351 3.35153 6.36936 3.35156C6.2052 3.35159 6.04265 3.38395 5.891 3.4468C5.73935 3.50965 5.60157 3.60176 5.48551 3.71786Z" fill="#48CAE4"/>
<path d="M3.94531 4.88281C4.46308 4.88281 4.88281 4.46308 4.88281 3.94531C4.88281 3.42755 4.46308 3.00781 3.94531 3.00781C3.42755 3.00781 3.00781 3.42755 3.00781 3.94531C3.00781 4.46308 3.42755 4.88281 3.94531 4.88281Z" fill="#EDB88E"/>
<path d="M4.60594 3.72125C4.50365 3.82634 4.37784 3.90561 4.23889 3.95251C4.09993 3.99941 3.95182 4.01259 3.80677 3.99098C3.66172 3.96937 3.52388 3.91358 3.40463 3.82821C3.28539 3.74284 3.18815 3.63035 3.12094 3.5C3.04369 3.64242 3.00477 3.80246 3.008 3.96445C3.01123 4.12644 3.0565 4.28481 3.13936 4.42403C3.22223 4.56326 3.33986 4.67856 3.4807 4.75863C3.62155 4.83871 3.78079 4.88081 3.94281 4.88081C4.10483 4.88081 4.26407 4.83871 4.40492 4.75863C4.54577 4.67856 4.66339 4.56326 4.74626 4.42403C4.82913 4.28481 4.8744 4.12644 4.87763 3.96445C4.88086 3.80246 4.84194 3.64242 4.76469 3.5C4.72291 3.58113 4.66942 3.65568 4.60594 3.72125Z" fill="#DA9367"/>
<path d="M7.91645 5.27034C8.00347 5.35738 8.1068 5.4264 8.22054 5.47342C8.33428 5.52045 8.45619 5.54457 8.57926 5.5444C8.69845 5.54516 8.81655 5.52177 8.92645 5.47565C8.96875 5.57174 8.98567 5.67708 8.9756 5.78159C8.96553 5.8861 8.92881 5.98627 8.86895 6.07252C8.81644 6.14691 8.74831 6.20893 8.66932 6.25424C8.59033 6.29955 8.5024 6.32705 8.41167 6.33482C8.32094 6.34259 8.22961 6.33044 8.14407 6.29922C8.05853 6.268 7.98085 6.21847 7.91645 6.15409L8.35833 6.59596L6.59051 8.36377L6.14833 7.9219C6.21241 7.98602 6.26177 8.06331 6.293 8.14841C6.32423 8.23352 6.33657 8.3244 6.32917 8.41475C6.32176 8.5051 6.29479 8.59275 6.25013 8.67164C6.20547 8.75053 6.14418 8.81875 6.07051 8.87159C5.9434 8.95665 5.79037 8.99416 5.63832 8.97753C5.48628 8.9609 5.34498 8.89118 5.23926 8.78065L3.7177 7.25909C3.60162 7.14301 3.50954 7.00521 3.44672 6.85355C3.3839 6.70189 3.35156 6.53934 3.35156 6.37518C3.35156 6.21102 3.3839 6.04847 3.44672 5.89681C3.50954 5.74515 3.60162 5.60735 3.7177 5.49127L3.93864 5.27034C4.0257 5.35741 4.12905 5.42648 4.24281 5.4736C4.35656 5.52072 4.47848 5.54498 4.60161 5.54498C4.72474 5.54498 4.84666 5.52072 4.96041 5.4736C5.07416 5.42648 5.17752 5.35741 5.26458 5.27034L6.14833 4.38627C6.20637 4.32821 6.27528 4.28215 6.35112 4.25072C6.42697 4.2193 6.50826 4.20312 6.59036 4.20312C6.67246 4.20312 6.75375 4.2193 6.82959 4.25072C6.90544 4.28215 6.97435 4.32821 7.03239 4.38627L7.91645 5.27034Z" fill="#00B4D8"/>
<path d="M16.2757 14.5145L14.5079 16.2823C14.3919 16.3984 14.2541 16.4905 14.1024 16.5533C13.9507 16.6161 13.7882 16.6484 13.624 16.6484C13.4599 16.6484 13.2973 16.6161 13.1457 16.5533C12.994 16.4905 12.8562 16.3984 12.7401 16.2823L11.2157 14.7592C11.1058 14.654 11.0364 14.5135 11.0196 14.3623C11.0028 14.2111 11.0397 14.0587 11.1239 13.932C11.1765 13.8577 11.2447 13.7959 11.3237 13.7507C11.4027 13.7056 11.4906 13.6782 11.5813 13.6705C11.672 13.6629 11.7632 13.6751 11.8487 13.7064C11.9342 13.7377 12.0118 13.7873 12.0761 13.8517L11.6354 13.4098L13.4032 11.642L13.8454 12.0839C13.781 12.0196 13.7315 11.942 13.7002 11.8565C13.6689 11.7711 13.6567 11.6798 13.6643 11.5891C13.6719 11.4984 13.6993 11.4105 13.7445 11.3315C13.7896 11.2525 13.8515 11.1843 13.9257 11.1317C14.0525 11.0475 14.2048 11.0106 14.356 11.0274C14.5072 11.0442 14.6477 11.1136 14.7529 11.2236L16.2761 12.7467C16.3921 12.8628 16.4842 13.0006 16.547 13.1523C16.6098 13.3039 16.6421 13.4665 16.642 13.6307C16.642 13.7948 16.6097 13.9574 16.5468 14.109C16.484 14.2607 16.3918 14.3984 16.2757 14.5145Z" fill="#48CAE4"/>
<path d="M16.0547 16.9922C16.5725 16.9922 16.9922 16.5725 16.9922 16.0547C16.9922 15.5369 16.5725 15.1172 16.0547 15.1172C15.5369 15.1172 15.1172 15.5369 15.1172 16.0547C15.1172 16.5725 15.5369 16.9922 16.0547 16.9922Z" fill="#EDB88E"/>
<path d="M16.2771 15.3969C16.172 15.4991 16.0927 15.6249 16.0457 15.7639C15.9988 15.9028 15.9856 16.0509 16.0072 16.196C16.0288 16.341 16.0845 16.4789 16.1699 16.5981C16.2552 16.7174 16.3677 16.8146 16.498 16.8819C16.3556 16.9591 16.1955 16.998 16.0335 16.9948C15.8716 16.9916 15.7132 16.9463 15.574 16.8634C15.4347 16.7806 15.3194 16.663 15.2394 16.5221C15.1593 16.3813 15.1172 16.222 15.1172 16.06C15.1172 15.898 15.1593 15.7387 15.2394 15.5979C15.3194 15.457 15.4347 15.3394 15.574 15.2566C15.7132 15.1737 15.8716 15.1284 16.0335 15.1252C16.1955 15.122 16.3556 15.1609 16.498 15.2381C16.417 15.2799 16.3425 15.3334 16.2771 15.3969Z" fill="#DA9367"/>
<path d="M14.7345 12.0776C14.6474 11.9906 14.5784 11.8872 14.5314 11.7735C14.4844 11.6598 14.4603 11.5379 14.4604 11.4148C14.4597 11.2956 14.483 11.1775 14.5292 11.0676C14.4331 11.0253 14.3277 11.0084 14.2232 11.0185C14.1187 11.0285 14.0186 11.0652 13.9323 11.1251C13.8579 11.1776 13.7959 11.2457 13.7506 11.3247C13.7053 11.4037 13.6778 11.4917 13.67 11.5824C13.6622 11.6731 13.6744 11.7644 13.7056 11.85C13.7368 11.9355 13.7864 12.0132 13.8507 12.0776L13.4089 11.6357L11.6411 13.4035L12.0829 13.8457C12.0188 13.7816 11.9415 13.7323 11.8564 13.7011C11.7713 13.6698 11.6804 13.6575 11.5901 13.6649C11.4997 13.6723 11.4121 13.6993 11.3332 13.7439C11.2543 13.7886 11.1861 13.8499 11.1332 13.9235C11.0482 14.0507 11.0107 14.2037 11.0273 14.3557C11.0439 14.5078 11.1136 14.6491 11.2242 14.7548L12.7457 16.2764C12.8618 16.3924 12.9996 16.4845 13.1513 16.5473C13.3029 16.6102 13.4655 16.6425 13.6296 16.6425C13.7938 16.6425 13.9564 16.6102 14.108 16.5473C14.2597 16.4845 14.3975 16.3924 14.5136 16.2764L14.7345 16.0554C14.6474 15.9684 14.5783 15.865 14.5312 15.7512C14.4841 15.6375 14.4598 15.5156 14.4598 15.3924C14.4598 15.2693 14.4841 15.1474 14.5312 15.0336C14.5783 14.9199 14.6474 14.8165 14.7345 14.7295L15.6186 13.8457C15.6766 13.7877 15.7227 13.7188 15.7541 13.6429C15.7855 13.5671 15.8017 13.4858 15.8017 13.4037C15.8017 13.3216 15.7855 13.2403 15.7541 13.1645C15.7227 13.0886 15.6766 13.0197 15.6186 12.9617L14.7345 12.0776Z" fill="#00B4D8"/>
<path d="M3.71786 14.5145L5.48567 16.2823C5.60175 16.3984 5.73955 16.4905 5.89121 16.5533C6.04287 16.6161 6.20542 16.6484 6.36958 16.6484C6.53373 16.6484 6.69629 16.6161 6.84795 16.5533C6.99961 16.4905 7.13741 16.3984 7.25348 16.2823L8.77786 14.7592C8.88778 14.654 8.95722 14.5135 8.97402 14.3623C8.99081 14.2111 8.9539 14.0587 8.86973 13.932C8.81712 13.8577 8.74893 13.7959 8.66992 13.7507C8.59091 13.7056 8.50299 13.6782 8.4123 13.6705C8.32162 13.6629 8.23036 13.6751 8.14491 13.7064C8.05945 13.7377 7.98185 13.7873 7.91755 13.8517L8.35817 13.4098L6.59036 11.642L6.14817 12.0839C6.21256 12.0196 6.26213 11.942 6.29342 11.8565C6.32471 11.7711 6.33695 11.6798 6.32931 11.5891C6.32166 11.4984 6.2943 11.4105 6.24914 11.3315C6.20398 11.2525 6.14211 11.1843 6.06786 11.1317C5.94111 11.0475 5.7888 11.0106 5.63758 11.0274C5.48636 11.0442 5.34586 11.1136 5.24067 11.2236L3.71755 12.7467C3.60149 12.8628 3.50943 13.0006 3.44663 13.1523C3.38384 13.3039 3.35153 13.4665 3.35156 13.6307C3.35159 13.7948 3.38395 13.9574 3.4468 14.109C3.50965 14.2607 3.60176 14.3984 3.71786 14.5145Z" fill="#EF5350"/>
<path d="M3.94531 16.9922C4.46308 16.9922 4.88281 16.5725 4.88281 16.0547C4.88281 15.5369 4.46308 15.1172 3.94531 15.1172C3.42755 15.1172 3.00781 15.5369 3.00781 16.0547C3.00781 16.5725 3.42755 16.9922 3.94531 16.9922Z" fill="#EDB88E"/>
<path d="M3.72094 15.3969C3.82604 15.4991 3.90533 15.6249 3.95225 15.7639C3.99917 15.9028 4.01239 16.0509 3.99081 16.196C3.96922 16.341 3.91347 16.4789 3.82813 16.5981C3.74279 16.7174 3.63032 16.8146 3.5 16.8819C3.64242 16.9591 3.80246 16.998 3.96445 16.9948C4.12644 16.9916 4.28481 16.9463 4.42403 16.8634C4.56326 16.7806 4.67856 16.663 4.75863 16.5221C4.83871 16.3813 4.88081 16.222 4.88081 16.06C4.88081 15.898 4.83871 15.7387 4.75863 15.5979C4.67856 15.457 4.56326 15.3394 4.42403 15.2566C4.28481 15.1737 4.12644 15.1284 3.96445 15.1252C3.80246 15.122 3.64242 15.1609 3.5 15.2381C3.58102 15.2799 3.65547 15.3334 3.72094 15.3969Z" fill="#DA9367"/>
<path d="M5.27034 12.0776C5.35738 11.9906 5.4264 11.8872 5.47342 11.7735C5.52045 11.6598 5.54457 11.5379 5.5444 11.4148C5.54516 11.2956 5.52177 11.1775 5.47565 11.0676C5.57174 11.0253 5.67708 11.0084 5.78159 11.0185C5.8861 11.0285 5.98627 11.0652 6.07252 11.1251C6.14691 11.1776 6.20893 11.2457 6.25424 11.3247C6.29955 11.4037 6.32705 11.4917 6.33482 11.5824C6.34259 11.6731 6.33044 11.7644 6.29922 11.85C6.268 11.9355 6.21847 12.0132 6.15409 12.0776L6.59596 11.6357L8.36377 13.4035L7.9219 13.8457C7.98602 13.7816 8.06331 13.7323 8.14841 13.7011C8.23352 13.6698 8.3244 13.6575 8.41475 13.6649C8.5051 13.6723 8.59275 13.6993 8.67164 13.7439C8.75053 13.7886 8.81875 13.8499 8.87159 13.9235C8.95665 14.0507 8.99416 14.2037 8.97753 14.3557C8.9609 14.5078 8.89118 14.6491 8.78065 14.7548L7.25909 16.2764C7.14301 16.3924 7.00521 16.4845 6.85355 16.5473C6.70189 16.6102 6.53934 16.6425 6.37518 16.6425C6.21102 16.6425 6.04847 16.6102 5.89681 16.5473C5.74515 16.4845 5.60735 16.3924 5.49127 16.2764L5.27034 16.0554C5.35741 15.9684 5.42648 15.865 5.4736 15.7512C5.52072 15.6375 5.54498 15.5156 5.54498 15.3924C5.54498 15.2693 5.52072 15.1474 5.4736 15.0336C5.42648 14.9199 5.35741 14.8165 5.27034 14.7295L4.38627 13.8457C4.32821 13.7877 4.28215 13.7188 4.25072 13.6429C4.2193 13.5671 4.20312 13.4858 4.20312 13.4037C4.20312 13.3216 4.2193 13.2403 4.25072 13.1645C4.28215 13.0886 4.32821 13.0197 4.38627 12.9617L5.27034 12.0776Z" fill="#E53935"/>
<path d="M14.5145 3.71786L16.2823 5.48567C16.3984 5.60175 16.4905 5.73955 16.5533 5.89121C16.6161 6.04287 16.6484 6.20542 16.6484 6.36958C16.6484 6.53373 16.6161 6.69629 16.5533 6.84795C16.4905 6.99961 16.3984 7.13741 16.2823 7.25348L14.7592 8.77786C14.654 8.88778 14.5135 8.95722 14.3623 8.97402C14.2111 8.99081 14.0587 8.9539 13.932 8.86973C13.8577 8.81712 13.7959 8.74893 13.7507 8.66992C13.7056 8.59091 13.6782 8.50299 13.6705 8.4123C13.6629 8.32162 13.6751 8.23036 13.7064 8.14491C13.7377 8.05945 13.7873 7.98185 13.8517 7.91755L13.4098 8.35817L11.642 6.59036L12.0839 6.14817C12.0196 6.21256 11.942 6.26213 11.8565 6.29342C11.7711 6.32471 11.6798 6.33695 11.5891 6.32931C11.4984 6.32166 11.4105 6.2943 11.3315 6.24914C11.2525 6.20398 11.1843 6.14211 11.1317 6.06786C11.0475 5.94111 11.0106 5.7888 11.0274 5.63758C11.0442 5.48636 11.1136 5.34586 11.2236 5.24067L12.7467 3.71755C12.8628 3.60149 13.0006 3.50943 13.1523 3.44663C13.3039 3.38384 13.4665 3.35153 13.6307 3.35156C13.7948 3.35159 13.9574 3.38395 14.109 3.4468C14.2607 3.50965 14.3984 3.60176 14.5145 3.71786Z" fill="#EF5350"/>
<path d="M16.0547 4.88281C16.5725 4.88281 16.9922 4.46308 16.9922 3.94531C16.9922 3.42755 16.5725 3.00781 16.0547 3.00781C15.5369 3.00781 15.1172 3.42755 15.1172 3.94531C15.1172 4.46308 15.5369 4.88281 16.0547 4.88281Z" fill="#EDB88E"/>
<path d="M15.3969 3.72094C15.4991 3.82604 15.6249 3.90533 15.7639 3.95225C15.9028 3.99917 16.0509 4.01239 16.196 3.99081C16.341 3.96922 16.4789 3.91347 16.5981 3.82813C16.7174 3.74279 16.8146 3.63032 16.8819 3.5C16.9591 3.64242 16.998 3.80246 16.9948 3.96445C16.9916 4.12644 16.9463 4.28481 16.8634 4.42403C16.7806 4.56326 16.663 4.67856 16.5221 4.75863C16.3813 4.83871 16.222 4.88081 16.06 4.88081C15.898 4.88081 15.7387 4.83871 15.5979 4.75863C15.457 4.67856 15.3394 4.56326 15.2566 4.42403C15.1737 4.28481 15.1284 4.12644 15.1252 3.96445C15.122 3.80246 15.1609 3.64242 15.2381 3.5C15.2799 3.58102 15.3334 3.65547 15.3969 3.72094Z" fill="#DA9367"/>
<path d="M12.0776 5.27034C11.9906 5.35738 11.8872 5.4264 11.7735 5.47342C11.6598 5.52045 11.5379 5.54457 11.4148 5.5444C11.2956 5.54516 11.1775 5.52177 11.0676 5.47565C11.0253 5.57174 11.0084 5.67708 11.0185 5.78159C11.0285 5.8861 11.0652 5.98627 11.1251 6.07252C11.1776 6.14691 11.2457 6.20893 11.3247 6.25424C11.4037 6.29955 11.4917 6.32705 11.5824 6.33482C11.6731 6.34259 11.7644 6.33044 11.85 6.29922C11.9355 6.268 12.0132 6.21847 12.0776 6.15409L11.6357 6.59596L13.4035 8.36377L13.8457 7.9219C13.7816 7.98602 13.7323 8.06331 13.7011 8.14841C13.6698 8.23352 13.6575 8.3244 13.6649 8.41475C13.6723 8.5051 13.6993 8.59275 13.7439 8.67164C13.7886 8.75053 13.8499 8.81875 13.9235 8.87159C14.0507 8.95665 14.2037 8.99416 14.3557 8.97753C14.5078 8.9609 14.6491 8.89118 14.7548 8.78065L16.2764 7.25909C16.3924 7.14301 16.4845 7.00521 16.5473 6.85355C16.6102 6.70189 16.6425 6.53934 16.6425 6.37518C16.6425 6.21102 16.6102 6.04847 16.5473 5.89681C16.4845 5.74515 16.3924 5.60735 16.2764 5.49127L16.0554 5.27034C15.9684 5.35741 15.865 5.42648 15.7512 5.4736C15.6375 5.52072 15.5156 5.54498 15.3924 5.54498C15.2693 5.54498 15.1474 5.52072 15.0336 5.4736C14.9199 5.42648 14.8165 5.35741 14.7295 5.27034L13.8457 4.38627C13.7877 4.32821 13.7188 4.28215 13.6429 4.25072C13.5671 4.2193 13.4858 4.20312 13.4037 4.20312C13.3216 4.20312 13.2403 4.2193 13.1645 4.25072C13.0886 4.28215 13.0197 4.32821 12.9617 4.38627L12.0776 5.27034Z" fill="#E53935"/>
<path d="M6.2504 8.32608C6.20935 8.32619 6.16868 8.31815 6.13076 8.30244C6.09283 8.28672 6.0584 8.26363 6.02946 8.23452L4.69697 6.90202C4.66712 6.87319 4.64331 6.83871 4.62693 6.80058C4.61056 6.76245 4.60193 6.72145 4.60157 6.67995C4.60121 6.63846 4.60912 6.59731 4.62483 6.55891C4.64055 6.5205 4.66375 6.48561 4.69309 6.45627C4.72243 6.42693 4.75732 6.40372 4.79573 6.38801C4.83413 6.3723 4.87528 6.36439 4.91678 6.36475C4.95827 6.36511 4.99928 6.37373 5.0374 6.39011C5.07553 6.40649 5.11001 6.43029 5.13884 6.46014L6.47134 7.79233C6.51514 7.83602 6.54498 7.89172 6.5571 7.95238C6.56921 8.01305 6.56305 8.07594 6.53939 8.1331C6.51573 8.19026 6.47564 8.23911 6.42419 8.27346C6.37275 8.30781 6.31226 8.32613 6.2504 8.32608ZM8.01822 6.55827C7.93534 6.55825 7.85587 6.52531 7.79728 6.4667L6.46509 5.1342C6.43455 5.10556 6.41007 5.07107 6.39311 5.03278C6.37616 4.9945 6.36707 4.95319 6.36639 4.91132C6.36571 4.86946 6.37345 4.82788 6.38916 4.78906C6.40486 4.75024 6.4282 4.71498 6.4578 4.68536C6.4874 4.65574 6.52265 4.63237 6.56146 4.61664C6.60026 4.60091 6.64183 4.59314 6.6837 4.59379C6.72557 4.59444 6.76688 4.6035 6.80518 4.62042C6.84348 4.63735 6.87799 4.6618 6.90665 4.69233L8.23884 6.02483C8.28251 6.06851 8.31226 6.12416 8.32432 6.18474C8.33638 6.24532 8.33022 6.30812 8.30661 6.3652C8.283 6.42228 8.24301 6.47109 8.19168 6.50545C8.14035 6.53981 8.07999 6.55819 8.01822 6.55827ZM13.3148 15.3908C13.2319 15.3907 13.1524 15.3578 13.0938 15.2992L11.7617 13.9667C11.7047 13.9078 11.6732 13.8288 11.6739 13.7469C11.6747 13.665 11.7075 13.5866 11.7655 13.5286C11.8234 13.4707 11.9018 13.4378 11.9837 13.4371C12.0657 13.4364 12.1446 13.4679 12.2035 13.5248L13.5357 14.8573C13.5794 14.901 13.6092 14.9567 13.6212 15.0173C13.6333 15.0779 13.6271 15.1408 13.6034 15.1978C13.5798 15.2549 13.5397 15.3037 13.4884 15.3381C13.437 15.3724 13.3766 15.3908 13.3148 15.3908ZM15.0829 13.6226C15.0419 13.6228 15.0012 13.6147 14.9633 13.599C14.9253 13.5833 14.8909 13.5602 14.862 13.5311L13.5295 12.1989C13.4725 12.14 13.441 12.061 13.4418 11.9791C13.4425 11.8971 13.4753 11.8188 13.5333 11.7608C13.5912 11.7029 13.6696 11.67 13.7515 11.6693C13.8335 11.6686 13.9124 11.7001 13.9713 11.757L15.3038 13.0895C15.3475 13.1332 15.3773 13.1889 15.3893 13.2495C15.4014 13.3101 15.3952 13.3729 15.3716 13.43C15.3479 13.4871 15.3079 13.5359 15.2565 13.5703C15.2051 13.6046 15.1447 13.6226 15.0829 13.6226Z" fill="#0096C7"/>
<path d="M6.68212 15.3955C6.62032 15.3955 6.55992 15.3772 6.50854 15.3428C6.45716 15.3085 6.41712 15.2597 6.39347 15.2026C6.36982 15.1455 6.36364 15.0827 6.37569 15.0221C6.38774 14.9615 6.41749 14.9058 6.46118 14.8621L7.79337 13.5296C7.85231 13.4727 7.93125 13.4412 8.01318 13.4419C8.09512 13.4426 8.1735 13.4755 8.23144 13.5334C8.28938 13.5913 8.32224 13.6697 8.32296 13.7517C8.32367 13.8336 8.29217 13.9125 8.23525 13.9715L6.90275 15.304C6.84423 15.3625 6.76489 15.3954 6.68212 15.3955ZM4.914 13.6274C4.8522 13.6274 4.79179 13.6091 4.74042 13.5747C4.68904 13.5404 4.64899 13.4916 4.62535 13.4345C4.6017 13.3774 4.59551 13.3146 4.60756 13.254C4.61962 13.1934 4.64937 13.1377 4.69306 13.094L6.02556 11.7618C6.0845 11.7049 6.16343 11.6734 6.24537 11.6741C6.32731 11.6748 6.40569 11.7077 6.46363 11.7656C6.52157 11.8235 6.55443 11.9019 6.55514 11.9838C6.55586 12.0658 6.52436 12.1447 6.46743 12.2037L5.13493 13.5358C5.10599 13.565 5.07156 13.588 5.03364 13.6038C4.99571 13.6195 4.95505 13.6275 4.914 13.6274ZM13.7465 8.33085C13.6847 8.33083 13.6243 8.3125 13.5729 8.27816C13.5215 8.24382 13.4815 8.19502 13.4578 8.13793C13.4342 8.08083 13.428 8.01801 13.4401 7.9574C13.4521 7.89679 13.4819 7.84111 13.5256 7.79741L14.8581 6.46522C14.9172 6.40966 14.9957 6.3793 15.0768 6.38056C15.158 6.38182 15.2355 6.41461 15.2929 6.47197C15.3503 6.52934 15.3831 6.6068 15.3844 6.68795C15.3858 6.7691 15.3554 6.84758 15.2999 6.90678L13.9674 8.23897C13.9385 8.26815 13.9041 8.29129 13.8662 8.30706C13.8282 8.32283 13.7876 8.33092 13.7465 8.33085ZM11.9787 6.56303C11.9169 6.56302 11.8565 6.54469 11.8051 6.51035C11.7537 6.47601 11.7137 6.42721 11.69 6.37011C11.6664 6.31302 11.6602 6.2502 11.6722 6.18959C11.6843 6.12898 11.7141 6.0733 11.7577 6.0296L13.0902 4.6971C13.1492 4.64017 13.2281 4.60867 13.3101 4.60939C13.392 4.6101 13.4704 4.64296 13.5283 4.7009C13.5863 4.75884 13.6191 4.83722 13.6198 4.91916C13.6205 5.0011 13.589 5.08003 13.5321 5.13897L12.1996 6.47147C12.141 6.53008 12.0616 6.56302 11.9787 6.56303Z" fill="#C62828"/>
<path d="M11.2502 2.8125H8.75016C8.41864 2.8125 8.1007 2.9442 7.86628 3.17862C7.63186 3.41304 7.50016 3.73098 7.50016 4.0625V6.21656C7.49679 6.3687 7.54703 6.51718 7.64209 6.63602C7.73716 6.75485 7.87099 6.83646 8.02016 6.86656C8.10987 6.88185 8.20183 6.87737 8.28962 6.85342C8.37742 6.82947 8.45892 6.78664 8.52844 6.72793C8.59796 6.66921 8.65382 6.59602 8.69212 6.51347C8.73042 6.43092 8.75022 6.341 8.75016 6.25V6.875H11.2502V6.25C11.2501 6.341 11.2699 6.43092 11.3082 6.51347C11.3465 6.59602 11.4024 6.66921 11.4719 6.72793C11.5414 6.78664 11.6229 6.82947 11.7107 6.85342C11.7985 6.87737 11.8905 6.88185 11.9802 6.86656C12.1293 6.83646 12.2632 6.75485 12.3582 6.63602C12.4533 6.51718 12.5035 6.3687 12.5002 6.21656V4.0625C12.5002 3.73098 12.3685 3.41304 12.134 3.17862C11.8996 2.9442 11.5817 2.8125 11.2502 2.8125Z" fill="#95D5B2"/>
<path d="M10 2.8125C10.5178 2.8125 10.9375 2.39277 10.9375 1.875C10.9375 1.35723 10.5178 0.9375 10 0.9375C9.48223 0.9375 9.0625 1.35723 9.0625 1.875C9.0625 2.39277 9.48223 2.8125 10 2.8125Z" fill="#F9DBAF"/>
<path d="M10.6251 2.19062C10.3764 2.19062 10.138 2.09185 9.96214 1.91604C9.78633 1.74022 9.68756 1.50177 9.68756 1.25312C9.68891 1.16188 9.70365 1.07133 9.73131 0.984375C9.57602 1.03049 9.43537 1.11617 9.32316 1.23301C9.21094 1.34984 9.13101 1.49383 9.09119 1.65085C9.05137 1.80788 9.05303 1.97255 9.09601 2.12874C9.13899 2.28493 9.22181 2.42728 9.33636 2.54183C9.4509 2.65637 9.59325 2.7392 9.74944 2.78218C9.90563 2.82515 10.0703 2.82681 10.2273 2.78699C10.3844 2.74717 10.5283 2.66724 10.6452 2.55503C10.762 2.44281 10.8477 2.30217 10.8938 2.14688C10.8068 2.17453 10.7163 2.18927 10.6251 2.19062Z" fill="#EDB88E"/>
<path d="M11.8752 5.625C11.8752 5.74809 11.8994 5.86997 11.9466 5.98366C11.9938 6.09735 12.063 6.2006 12.1502 6.2875C12.2338 6.37225 12.3337 6.43922 12.4439 6.48438C12.4059 6.58223 12.3435 6.66868 12.2625 6.73544C12.1815 6.8022 12.0847 6.84703 11.9814 6.86562C11.8917 6.8811 11.7997 6.87679 11.7118 6.85299C11.6239 6.82919 11.5423 6.78648 11.4726 6.72785C11.403 6.66921 11.347 6.59606 11.3086 6.51352C11.2701 6.43098 11.2502 6.34105 11.2502 6.25V6.875H8.75017V6.25C8.75011 6.34066 8.73033 6.43023 8.6922 6.51248C8.65406 6.59473 8.59849 6.66771 8.52934 6.72634C8.46018 6.78497 8.3791 6.82785 8.29172 6.85201C8.20433 6.87617 8.11274 6.88103 8.02329 6.86625C7.87331 6.83644 7.73864 6.75471 7.64296 6.63542C7.54728 6.51614 7.49672 6.36694 7.50017 6.21406V4.0625C7.50017 3.73098 7.63186 3.41304 7.86628 3.17862C8.1007 2.9442 8.41864 2.8125 8.75017 2.8125H9.06267C9.06267 3.06114 9.16144 3.2996 9.33725 3.47541C9.51307 3.65123 9.75152 3.75 10.0002 3.75H11.2502C11.4159 3.75 11.5749 3.81585 11.6921 3.93306C11.8093 4.05027 11.8752 4.20924 11.8752 4.375V5.625Z" fill="#52B788"/>
<path d="M11.2502 17.1879H8.75016C8.41864 17.1879 8.1007 17.0562 7.86628 16.8218C7.63186 16.5874 7.50016 16.2695 7.50016 15.9379V13.7839C7.49679 13.6317 7.54703 13.4833 7.64209 13.3644C7.73716 13.2456 7.87099 13.164 8.02016 13.1339C8.10987 13.1186 8.20183 13.1231 8.28962 13.147C8.37742 13.171 8.45892 13.2138 8.52844 13.2725C8.59796 13.3312 8.65382 13.4044 8.69212 13.487C8.73042 13.5695 8.75022 13.6594 8.75016 13.7504V13.1254H11.2502V13.7504C11.2501 13.6594 11.2699 13.5695 11.3082 13.487C11.3465 13.4044 11.4024 13.3312 11.4719 13.2725C11.5414 13.2138 11.6229 13.171 11.7107 13.147C11.7985 13.1231 11.8905 13.1186 11.9802 13.1339C12.1293 13.164 12.2632 13.2456 12.3582 13.3644C12.4533 13.4833 12.5035 13.6317 12.5002 13.7839V15.9379C12.5002 16.2695 12.3685 16.5874 12.134 16.8218C11.8996 17.0562 11.5817 17.1879 11.2502 17.1879Z" fill="#95D5B2"/>
<path d="M10 19.0625C10.5178 19.0625 10.9375 18.6428 10.9375 18.125C10.9375 17.6072 10.5178 17.1875 10 17.1875C9.48223 17.1875 9.0625 17.6072 9.0625 18.125C9.0625 18.6428 9.48223 19.0625 10 19.0625Z" fill="#F9DBAF"/>
<path d="M10.6251 17.8126C10.4784 17.8106 10.3334 17.8435 10.202 17.9085C10.0706 17.9736 9.95656 18.069 9.86926 18.1868C9.78197 18.3046 9.72393 18.4415 9.69994 18.5862C9.67596 18.7308 9.68671 18.8791 9.73131 19.0188C9.57602 18.9727 9.43537 18.887 9.32316 18.7702C9.21094 18.6533 9.13101 18.5094 9.09119 18.3523C9.05137 18.1953 9.05303 18.0306 9.09601 17.8744C9.13899 17.7182 9.22181 17.5759 9.33636 17.4614C9.4509 17.3468 9.59325 17.264 9.74944 17.221C9.90563 17.178 10.0703 17.1764 10.2273 17.2162C10.3844 17.256 10.5283 17.3359 10.6452 17.4482C10.762 17.5604 10.8477 17.701 10.8938 17.8563C10.8068 17.8286 10.7163 17.8139 10.6251 17.8126Z" fill="#EDB88E"/>
<path d="M11.8752 14.375C11.8752 14.2519 11.8994 14.13 11.9466 14.0163C11.9938 13.9027 12.063 13.7994 12.1502 13.7125C12.2338 13.6277 12.3337 13.5608 12.4439 13.5156C12.4059 13.4178 12.3435 13.3313 12.2625 13.2646C12.1815 13.1978 12.0847 13.153 11.9814 13.1344C11.8917 13.1189 11.7997 13.1232 11.7118 13.147C11.6239 13.1708 11.5423 13.2135 11.4726 13.2722C11.403 13.3308 11.347 13.4039 11.3086 13.4865C11.2701 13.569 11.2502 13.659 11.2502 13.75V13.125H8.75017V13.75C8.75011 13.6593 8.73033 13.5698 8.6922 13.4875C8.65406 13.4053 8.59849 13.3323 8.52934 13.2737C8.46018 13.215 8.3791 13.1722 8.29172 13.148C8.20433 13.1238 8.11274 13.119 8.02329 13.1337C7.87331 13.1636 7.73864 13.2453 7.64296 13.3646C7.54728 13.4839 7.49672 13.6331 7.50017 13.7859V15.9375C7.50017 16.269 7.63186 16.587 7.86628 16.8214C8.1007 17.0558 8.41864 17.1875 8.75017 17.1875H9.06267C9.06267 16.9389 9.16144 16.7004 9.33725 16.5246C9.51307 16.3488 9.75152 16.25 10.0002 16.25H11.2502C11.4159 16.25 11.5749 16.1842 11.6921 16.0669C11.8093 15.9497 11.8752 15.7908 11.8752 15.625V14.375Z" fill="#52B788"/>
<path d="M2.8125 8.75016V11.2502C2.8125 11.5817 2.9442 11.8996 3.17862 12.134C3.41304 12.3685 3.73098 12.5002 4.0625 12.5002H6.21656C6.3687 12.5035 6.51718 12.4533 6.63602 12.3582C6.75485 12.2632 6.83646 12.1293 6.86656 11.9802C6.88185 11.8905 6.87737 11.7985 6.85342 11.7107C6.82947 11.6229 6.78664 11.5414 6.72793 11.4719C6.66921 11.4024 6.59602 11.3465 6.51347 11.3082C6.43092 11.2699 6.341 11.2501 6.25 11.2502H6.875V8.75016H6.25C6.341 8.75022 6.43092 8.73042 6.51347 8.69212C6.59602 8.65382 6.66921 8.59796 6.72793 8.52844C6.78664 8.45892 6.82947 8.37742 6.85342 8.28962C6.87737 8.20183 6.88185 8.10987 6.86656 8.02016C6.83646 7.87099 6.75485 7.73716 6.63602 7.64209C6.51718 7.54703 6.3687 7.49679 6.21656 7.50016H4.0625C3.73098 7.50016 3.41304 7.63186 3.17862 7.86628C2.9442 8.1007 2.8125 8.41864 2.8125 8.75016Z" fill="#FF7373"/>
<path d="M1.875 10.9375C2.39277 10.9375 2.8125 10.5178 2.8125 10C2.8125 9.48223 2.39277 9.0625 1.875 9.0625C1.35723 9.0625 0.9375 9.48223 0.9375 10C0.9375 10.5178 1.35723 10.9375 1.875 10.9375Z" fill="#F9DBAF"/>
<path d="M2.19062 9.37813C2.19062 9.62677 2.09185 9.86522 1.91604 10.041C1.74022 10.2169 1.50177 10.3156 1.25312 10.3156C1.16188 10.3143 1.07133 10.2995 0.984375 10.2719C1.03049 10.4272 1.11617 10.5678 1.23301 10.68C1.34984 10.7922 1.49383 10.8722 1.65085 10.912C1.80788 10.9518 1.97255 10.9502 2.12874 10.9072C2.28493 10.8642 2.42728 10.7814 2.54183 10.6668C2.65637 10.5523 2.7392 10.4099 2.78218 10.2537C2.82515 10.0976 2.82681 9.93288 2.78699 9.77585C2.74717 9.61883 2.66724 9.47484 2.55503 9.35801C2.44281 9.24117 2.30217 9.15549 2.14688 9.10938C2.17453 9.19633 2.18927 9.28688 2.19062 9.37813Z" fill="#EDB88E"/>
<path d="M5.625 8.13125C5.74809 8.13126 5.86997 8.10698 5.98366 8.05978C6.09735 8.01259 6.2006 7.94343 6.2875 7.85625C6.37225 7.7726 6.43922 7.67268 6.48438 7.5625C6.58223 7.60047 6.66868 7.66294 6.73544 7.74393C6.8022 7.82492 6.84703 7.9217 6.86562 8.025C6.8811 8.11472 6.87679 8.20674 6.85299 8.29462C6.82919 8.3825 6.78648 8.46412 6.72785 8.53377C6.66921 8.60342 6.59606 8.65942 6.51352 8.69785C6.43098 8.73628 6.34105 8.75621 6.25 8.75625H6.875V11.2562H6.25C6.34066 11.2563 6.43023 11.2761 6.51248 11.3142C6.59473 11.3524 6.66771 11.4079 6.72634 11.4771C6.78497 11.5462 6.82785 11.6273 6.85201 11.7147C6.87617 11.8021 6.88103 11.8937 6.86625 11.9831C6.83644 12.1331 6.75471 12.2678 6.63542 12.3635C6.51614 12.4591 6.36694 12.5097 6.21406 12.5062H4.0625C3.73098 12.5062 3.41304 12.3746 3.17862 12.1401C2.9442 11.9057 2.8125 11.5878 2.8125 11.2562V10.9437C3.06114 10.9437 3.2996 10.845 3.47541 10.6692C3.65123 10.4933 3.75 10.2549 3.75 10.0062V8.75625C3.75 8.59049 3.81585 8.43152 3.93306 8.31431C4.05027 8.1971 4.20924 8.13125 4.375 8.13125H5.625Z" fill="#EF5350"/>
<path d="M17.1879 8.75016V11.2502C17.1879 11.5817 17.0562 11.8996 16.8218 12.134C16.5874 12.3685 16.2695 12.5002 15.9379 12.5002H13.7839C13.6317 12.5035 13.4833 12.4533 13.3644 12.3582C13.2456 12.2632 13.164 12.1293 13.1339 11.9802C13.1186 11.8905 13.1231 11.7985 13.147 11.7107C13.171 11.6229 13.2138 11.5414 13.2725 11.4719C13.3312 11.4024 13.4044 11.3465 13.487 11.3082C13.5695 11.2699 13.6594 11.2501 13.7504 11.2502H13.1254V8.75016H13.7504C13.6594 8.75022 13.5695 8.73042 13.487 8.69212C13.4044 8.65382 13.3312 8.59796 13.2725 8.52844C13.2138 8.45892 13.171 8.37742 13.147 8.28962C13.1231 8.20183 13.1186 8.10987 13.1339 8.02016C13.164 7.87099 13.2456 7.73716 13.3644 7.64209C13.4833 7.54703 13.6317 7.49679 13.7839 7.50016H15.9379C16.2695 7.50016 16.5874 7.63186 16.8218 7.86628C17.0562 8.1007 17.1879 8.41864 17.1879 8.75016Z" fill="#FF7373"/>
<path d="M18.125 10.9375C18.6428 10.9375 19.0625 10.5178 19.0625 10C19.0625 9.48223 18.6428 9.0625 18.125 9.0625C17.6072 9.0625 17.1875 9.48223 17.1875 10C17.1875 10.5178 17.6072 10.9375 18.125 10.9375Z" fill="#F9DBAF"/>
<path d="M17.8126 9.37813C17.8106 9.52475 17.8435 9.66975 17.9085 9.80115C17.9736 9.93256 18.069 10.0466 18.1868 10.1339C18.3046 10.2212 18.4415 10.2793 18.5862 10.3032C18.7308 10.3272 18.8791 10.3165 19.0188 10.2719C18.9727 10.4272 18.887 10.5678 18.7702 10.68C18.6533 10.7922 18.5094 10.8722 18.3523 10.912C18.1953 10.9518 18.0306 10.9502 17.8744 10.9072C17.7182 10.8642 17.5759 10.7814 17.4614 10.6668C17.3468 10.5523 17.264 10.4099 17.221 10.2537C17.178 10.0976 17.1764 9.93288 17.2162 9.77585C17.256 9.61883 17.3359 9.47484 17.4482 9.35801C17.5604 9.24117 17.701 9.15549 17.8563 9.10938C17.8286 9.19633 17.8139 9.28688 17.8126 9.37813Z" fill="#EDB88E"/>
<path d="M14.375 8.13125C14.2519 8.13126 14.13 8.10698 14.0163 8.05978C13.9027 8.01259 13.7994 7.94343 13.7125 7.85625C13.6277 7.7726 13.5608 7.67268 13.5156 7.5625C13.4178 7.60047 13.3313 7.66294 13.2646 7.74393C13.1978 7.82492 13.153 7.9217 13.1344 8.025C13.1189 8.11472 13.1232 8.20674 13.147 8.29462C13.1708 8.3825 13.2135 8.46412 13.2722 8.53377C13.3308 8.60342 13.4039 8.65942 13.4865 8.69785C13.569 8.73628 13.659 8.75621 13.75 8.75625H13.125V11.2562H13.75C13.6593 11.2563 13.5698 11.2761 13.4875 11.3142C13.4053 11.3524 13.3323 11.4079 13.2737 11.4771C13.215 11.5462 13.1722 11.6273 13.148 11.7147C13.1238 11.8021 13.119 11.8937 13.1337 11.9831C13.1636 12.1331 13.2453 12.2678 13.3646 12.3635C13.4839 12.4591 13.6331 12.5097 13.7859 12.5062H15.9375C16.269 12.5062 16.587 12.3746 16.8214 12.1401C17.0558 11.9057 17.1875 11.5878 17.1875 11.2562V10.9437C16.9389 10.9437 16.7004 10.845 16.5246 10.6692C16.3488 10.4933 16.25 10.2549 16.25 10.0062V8.75625C16.25 8.59049 16.1842 8.43152 16.0669 8.31431C15.9497 8.1971 15.7908 8.13125 15.625 8.13125H14.375Z" fill="#EF5350"/>
<path d="M5.94688 11.5625H4.375C4.29212 11.5625 4.21263 11.5296 4.15403 11.471C4.09542 11.4124 4.0625 11.3329 4.0625 11.25C4.0625 11.1671 4.09542 11.0876 4.15403 11.029C4.21263 10.9704 4.29212 10.9375 4.375 10.9375H5.94688C6.02976 10.9375 6.10924 10.9704 6.16785 11.029C6.22645 11.0876 6.25938 11.1671 6.25938 11.25C6.25938 11.3329 6.22645 11.4124 6.16785 11.471C6.10924 11.5296 6.02976 11.5625 5.94688 11.5625ZM5.94688 9.0625H4.375C4.29212 9.0625 4.21263 9.02958 4.15403 8.97097C4.09542 8.91237 4.0625 8.83288 4.0625 8.75C4.0625 8.66712 4.09542 8.58763 4.15403 8.52903C4.21263 8.47042 4.29212 8.4375 4.375 8.4375H5.94688C6.02976 8.4375 6.10924 8.47042 6.16785 8.52903C6.22645 8.58763 6.25938 8.66712 6.25938 8.75C6.25938 8.83288 6.22645 8.91237 6.16785 8.97097C6.10924 9.02958 6.02976 9.0625 5.94688 9.0625ZM15.625 11.5625H14.0531C13.9702 11.5625 13.8908 11.5296 13.8322 11.471C13.7735 11.4124 13.7406 11.3329 13.7406 11.25C13.7406 11.1671 13.7735 11.0876 13.8322 11.029C13.8908 10.9704 13.9702 10.9375 14.0531 10.9375H15.625C15.7079 10.9375 15.7874 10.9704 15.846 11.029C15.9046 11.0876 15.9375 11.1671 15.9375 11.25C15.9375 11.3329 15.9046 11.4124 15.846 11.471C15.7874 11.5296 15.7079 11.5625 15.625 11.5625ZM15.625 9.0625H14.0531C13.9702 9.0625 13.8908 9.02958 13.8322 8.97097C13.7735 8.91237 13.7406 8.83288 13.7406 8.75C13.7406 8.66712 13.7735 8.58763 13.8322 8.52903C13.8908 8.47042 13.9702 8.4375 14.0531 8.4375H15.625C15.7079 8.4375 15.7874 8.47042 15.846 8.52903C15.9046 8.58763 15.9375 8.66712 15.9375 8.75C15.9375 8.83288 15.9046 8.91237 15.846 8.97097C15.7874 9.02958 15.7079 9.0625 15.625 9.0625Z" fill="#E53935"/>
<path d="M11.25 15.9375C11.1671 15.9375 11.0876 15.9046 11.029 15.846C10.9704 15.7874 10.9375 15.7079 10.9375 15.625V14.0531C10.9375 13.9702 10.9704 13.8908 11.029 13.8322C11.0876 13.7735 11.1671 13.7406 11.25 13.7406C11.3329 13.7406 11.4124 13.7735 11.471 13.8322C11.5296 13.8908 11.5625 13.9702 11.5625 14.0531V15.625C11.5625 15.7079 11.5296 15.7874 11.471 15.846C11.4124 15.9046 11.3329 15.9375 11.25 15.9375ZM8.75 15.9375C8.66712 15.9375 8.58763 15.9046 8.52903 15.846C8.47042 15.7874 8.4375 15.7079 8.4375 15.625V14.0531C8.4375 13.9702 8.47042 13.8908 8.52903 13.8322C8.58763 13.7735 8.66712 13.7406 8.75 13.7406C8.83288 13.7406 8.91237 13.7735 8.97097 13.8322C9.02958 13.8908 9.0625 13.9702 9.0625 14.0531V15.625C9.0625 15.7079 9.02958 15.7874 8.97097 15.846C8.91237 15.9046 8.83288 15.9375 8.75 15.9375ZM11.25 6.25938C11.1671 6.25938 11.0876 6.22645 11.029 6.16785C10.9704 6.10924 10.9375 6.02976 10.9375 5.94688V4.375C10.9375 4.29212 10.9704 4.21263 11.029 4.15403C11.0876 4.09542 11.1671 4.0625 11.25 4.0625C11.3329 4.0625 11.4124 4.09542 11.471 4.15403C11.5296 4.21263 11.5625 4.29212 11.5625 4.375V5.94688C11.5625 6.02976 11.5296 6.10924 11.471 6.16785C11.4124 6.22645 11.3329 6.25938 11.25 6.25938ZM8.75 6.25938C8.66712 6.25938 8.58763 6.22645 8.52903 6.16785C8.47042 6.10924 8.4375 6.02976 8.4375 5.94688V4.375C8.4375 4.29212 8.47042 4.21263 8.52903 4.15403C8.58763 4.09542 8.66712 4.0625 8.75 4.0625C8.83288 4.0625 8.91237 4.09542 8.97097 4.15403C9.02958 4.21263 9.0625 4.29212 9.0625 4.375V5.94688C9.0625 6.02976 9.02958 6.10924 8.97097 6.16785C8.91237 6.22645 8.83288 6.25938 8.75 6.25938Z" fill="#40916C"/>
<path d="M10 14.6875C12.5888 14.6875 14.6875 12.5888 14.6875 10C14.6875 7.41117 12.5888 5.3125 10 5.3125C7.41117 5.3125 5.3125 7.41117 5.3125 10C5.3125 12.5888 7.41117 14.6875 10 14.6875Z" fill="#ADE8F4"/>
<path d="M14.4581 11.4484C14.2174 12.1891 13.7961 12.8581 13.2321 13.395C12.668 13.9319 11.9791 14.3199 11.2276 14.5238C10.476 14.7278 9.68548 14.7413 8.9274 14.5631C8.16933 14.3849 7.46759 14.0206 6.88558 13.5032C6.30358 12.9858 5.85965 12.3316 5.5939 11.5996C5.32815 10.8676 5.24895 10.0809 5.36345 9.31067C5.47796 8.5404 5.78257 7.81079 6.24976 7.18776C6.71694 6.56473 7.33199 6.06791 8.03933 5.74219C7.75865 6.60876 7.73642 7.53832 7.97536 8.41731C8.21431 9.29631 8.70408 10.0867 9.38486 10.6919C10.0656 11.2971 10.9079 11.6909 11.8089 11.8253C12.7098 11.9596 13.6304 11.8287 14.4581 11.4484Z" fill="#48CAE4"/>
<path d="M10.0005 8.60034L9.65112 8.25097C9.5002 8.09988 9.32098 7.98002 9.12371 7.89824C8.92644 7.81647 8.71498 7.77438 8.50143 7.77438C8.28788 7.77438 8.07643 7.81647 7.87916 7.89824C7.68188 7.98002 7.50267 8.09988 7.35175 8.25097C7.20061 8.40189 7.08072 8.58113 6.99891 8.77843C6.91711 8.97573 6.875 9.18722 6.875 9.40081C6.875 9.6144 6.91711 9.82589 6.99891 10.0232C7.08072 10.2205 7.20061 10.3997 7.35175 10.5507L9.4255 12.6235C9.50096 12.6991 9.59059 12.759 9.68926 12.7999C9.78792 12.8409 9.89368 12.8619 10.0005 12.8619C10.1073 12.8619 10.2131 12.8409 10.3117 12.7999C10.4104 12.759 10.5 12.6991 10.5755 12.6235L12.6492 10.5497C12.8004 10.3988 12.9203 10.2196 13.0021 10.0223C13.0839 9.82495 13.126 9.61346 13.126 9.39987C13.126 9.18628 13.0839 8.97479 13.0021 8.77749C12.9203 8.58019 12.8004 8.40095 12.6492 8.25003C12.4983 8.09894 12.3191 7.97908 12.1218 7.89731C11.9246 7.81553 11.7131 7.77344 11.4996 7.77344C11.286 7.77344 11.0746 7.81553 10.8773 7.89731C10.68 7.97908 10.5008 8.09894 10.3499 8.25003L10.0005 8.60034Z" fill="#EF5350"/>
<path d="M11.4468 11.7563L10.575 12.625C10.4995 12.7006 10.4099 12.7606 10.3112 12.8015C10.2125 12.8424 10.1068 12.8635 9.99997 12.8635C9.89315 12.8635 9.78739 12.8424 9.68873 12.8015C9.59006 12.7606 9.50043 12.7006 9.42497 12.625L7.34997 10.5531C7.04578 10.2477 6.875 9.83419 6.875 9.40313C6.875 8.97206 7.04578 8.55856 7.34997 8.25313C7.49745 8.10483 7.67265 7.98697 7.86559 7.90625C8.01032 8.83203 8.42869 9.69335 9.06689 10.3794C9.70508 11.0655 10.5339 11.545 11.4468 11.7563Z" fill="#E53935"/>
<path d="M11.7701 9.97966C11.7083 9.97965 11.648 9.96133 11.5966 9.92703C11.5452 9.89273 11.5052 9.84398 11.4815 9.78694C11.4578 9.7299 11.4516 9.66712 11.4636 9.60654C11.4756 9.54595 11.5052 9.49027 11.5488 9.44653C11.5549 9.4407 11.5598 9.43369 11.5631 9.42593C11.5664 9.41817 11.5681 9.40982 11.5681 9.40138C11.5681 9.39294 11.5664 9.38459 11.5631 9.37683C11.5598 9.36906 11.5549 9.36206 11.5488 9.35622C11.5364 9.34534 11.5204 9.33935 11.5038 9.33935C11.4873 9.33935 11.4713 9.34534 11.4588 9.35622C11.43 9.38602 11.3954 9.40978 11.3573 9.4261C11.3191 9.44242 11.2781 9.45098 11.2366 9.45128C11.1951 9.45159 11.154 9.44362 11.1156 9.42785C11.0772 9.41209 11.0424 9.38883 11.0131 9.35945C10.9838 9.33007 10.9606 9.29515 10.945 9.25672C10.9293 9.2183 10.9215 9.17714 10.9219 9.13564C10.9223 9.09415 10.931 9.05316 10.9474 9.01506C10.9638 8.97696 10.9877 8.94251 11.0176 8.91372C11.1487 8.78857 11.323 8.71875 11.5043 8.71875C11.6856 8.71875 11.8599 8.78857 11.991 8.91372C12.1198 9.04304 12.1921 9.2181 12.1921 9.4006C12.1921 9.58309 12.1198 9.75816 11.991 9.88747C11.9621 9.9166 11.9276 9.93974 11.8897 9.95556C11.8518 9.97138 11.8112 9.97957 11.7701 9.97966Z" fill="#FF7373"/>
</g>
<defs>
<clipPath id="clip0_4697_68">
<rect width="20" height="20" fill="white"/>
</clipPath>
</defs>
</svg>
