<svg width="14" height="17" viewBox="0 0 14 17" fill="none" xmlns="http://www.w3.org/2000/svg">
<path d="M11.5125 16.125C10.4775 16.125 9.285 15.2475 8.2875 14.505C7.9725 14.2725 7.6875 14.0625 7.4625 13.9275C6.99 13.6425 6.7275 13.485 6.5625 13.485C6.3975 13.485 6.135 13.6425 5.6625 13.9275C5.4375 14.0625 5.1525 14.2725 4.8375 14.505C3.5925 15.4275 2.0475 16.5675 0.8775 15.945C0 15.48 0 14.4375 0 12.5475V6.345C0 3.465 0 2.0175 1.05 1.005C2.0925 0 3.585 0 6.5625 0C9.54 0 11.0325 0 12.075 1.005C13.125 2.0175 13.125 3.465 13.125 6.345V12.5475C13.125 14.4375 13.125 15.48 12.2475 15.945C12.015 16.0725 11.7675 16.125 11.5125 16.125ZM6.5625 12.36C7.0425 12.36 7.4175 12.585 8.0475 12.9675C8.31 13.125 8.61 13.35 8.9625 13.605C9.735 14.175 11.1825 15.24 11.7225 14.955C12.0075 14.805 12.0075 13.86 12.0075 12.5475V6.345C12.0075 3.78 12.0075 2.4975 11.3025 1.815C10.59 1.125 9.2475 1.125 6.57 1.125C3.8925 1.125 2.5575 1.125 1.8375 1.815C1.1325 2.4975 1.1325 3.78 1.1325 6.345V12.5475C1.1325 13.86 1.1325 14.805 1.4175 14.955C1.965 15.2475 3.405 14.175 4.1775 13.605C4.53 13.35 4.83 13.125 5.085 12.9675C5.715 12.5925 6.09 12.36 6.57 12.36H6.5625Z" fill="#94A3B8"/>
</svg>
