<svg width="16" height="16" viewBox="0 0 16 16" fill="none" xmlns="http://www.w3.org/2000/svg">
<path d="M14.6615 15.1615C14.5348 15.1615 14.4081 15.1148 14.3081 15.0148L11.5548 12.2615C10.4148 13.2348 8.94146 13.8281 7.32812 13.8281C3.74146 13.8281 0.828125 10.9148 0.828125 7.32812C0.828125 3.74146 3.74146 0.828125 7.32812 0.828125C10.9148 0.828125 13.8281 3.74146 13.8281 7.32812C13.8281 8.94146 13.2348 10.4148 12.2615 11.5548L15.0148 14.3081C15.2081 14.5015 15.2081 14.8215 15.0148 15.0148C14.9148 15.1148 14.7881 15.1615 14.6615 15.1615ZM7.32812 1.82812C4.29479 1.82812 1.82812 4.29479 1.82812 7.32812C1.82812 10.3615 4.29479 12.8281 7.32812 12.8281C10.3615 12.8281 12.8281 10.3615 12.8281 7.32812C12.8281 4.29479 10.3615 1.82812 7.32812 1.82812Z" fill="#94A3B8"/>
</svg>
