<svg width="20" height="20" viewBox="0 0 20 20" fill="none" xmlns="http://www.w3.org/2000/svg">
<path d="M5.78125 8.33594C5.20547 8.34019 4.85901 8.35785 4.58304 8.43094C3.32702 8.76352 2.46711 9.88919 2.50097 11.1565C2.51077 11.5236 2.65052 11.9773 2.93 12.8847C3.60262 15.0684 4.73302 16.9642 7.26537 17.419C7.73087 17.5026 8.25467 17.5026 9.30229 17.5026H10.6977C11.7453 17.5026 12.2691 17.5026 12.7346 17.419C15.267 16.9642 16.3974 15.0684 17.07 12.8847C17.3495 11.9773 17.4892 11.5236 17.499 11.1565C17.5329 9.88919 16.673 8.76352 15.417 8.43094C15.141 8.35785 14.7945 8.34019 14.2188 8.33594" stroke="#1E293B" stroke-width="1.25" stroke-linecap="round"/>
<path d="M9.99744 2.5V11.6667M9.99744 2.5C10.3877 2.5 10.6844 2.86508 11.2778 3.59525L12.0808 4.58333M9.99744 2.5C9.6071 2.5 9.31044 2.86508 8.71702 3.59525L7.91406 4.58333" stroke="#1E293B" stroke-width="1.25" stroke-linecap="round" stroke-linejoin="round"/>
</svg>
