<svg width="22" height="22" viewBox="0 0 22 22" fill="none" xmlns="http://www.w3.org/2000/svg">
<path d="M13.93 10.68C13.71 9.75 12.9 9.25 11.3 8.26C9.72 7.29 8.94 6.8 8.05 7.07C7.69 7.18 7.36 7.39 7.1 7.68C6.5 8.34 6.5 9.31 6.5 11.25C6.5 13.19 6.5 14.16 7.11 14.83C7.37 15.11 7.69 15.32 8.05 15.43C8.21 15.48 8.37 15.5 8.54 15.5C9.25 15.5 10.01 15.03 11.3 14.24C12.85 13.28 13.71 12.75 13.93 11.82C14.02 11.45 14.02 11.05 13.93 10.68ZM12.47 11.47C12.39 11.8 11.6 12.29 10.5 12.97C9.59 13.53 8.73 14.08 8.49 14C8.39 13.96 8.29 13.9 8.21 13.82C8 13.58 8 12.55 8 11.25C8 9.95 8 8.92 8.21 8.68C8.29 8.6 8.39 8.54 8.49 8.5H8.54C8.83 8.5 9.65 9 10.51 9.54C11.6 10.21 12.4 10.7 12.47 11.03C12.49 11.1 12.5 11.17 12.5 11.25C12.5 11.33 12.49 11.4 12.47 11.47Z" fill="#CBD5E1"/>
<path d="M20.5 9.75V11.25C20.5 15.93 20.5 18.28 18.89 19.89C17.28 21.5 14.93 21.5 10.25 21.5C5.57 21.5 3.22 21.5 1.61 19.89C0 18.28 0 15.93 0 11.25C0 6.57 0 4.22 1.61 2.61C3.22 1 5.57 1 10.25 1H11.75C12.17 1 12.5 1.34 12.5 1.76C12.5 2.18 12.16 2.5 11.75 2.5H10.25C5.98 2.5 3.84 2.5 2.67 3.67C1.5 4.84 1.5 6.98 1.5 11.25C1.5 15.52 1.5 17.66 2.67 18.83C3.84 20 5.98 20 10.25 20C14.52 20 16.66 20 17.83 18.83C19 17.66 19 15.52 19 11.25V9.75C19 9.34 19.33 9 19.75 9C20.17 8.99 20.5 9.33 20.5 9.75Z" fill="#CBD5E1"/>
<path d="M21.01 3.55L20.31 3.29C19.45 2.97 19.09 2.83 18.88 2.62C18.67 2.41 18.53 2.05 18.21 1.19L17.95 0.49C17.84 0.2 17.56 0 17.25 0C16.94 0 16.66 0.2 16.55 0.49L16.29 1.19C15.97 2.05 15.83 2.41 15.62 2.62C15.41 2.83 15.05 2.97 14.19 3.29L13.49 3.55C13.2 3.66 13 3.94 13 4.25C13 4.56 13.2 4.84 13.49 4.95L14.19 5.21C15.05 5.53 15.41 5.67 15.62 5.88C15.83 6.09 15.97 6.45 16.29 7.31L16.55 8.01C16.66 8.3 16.94 8.5 17.25 8.5C17.56 8.5 17.84 8.3 17.95 8.01L18.21 7.31C18.53 6.45 18.67 6.09 18.88 5.88C19.09 5.67 19.45 5.53 20.31 5.21L21.01 4.95C21.3 4.84 21.5 4.56 21.5 4.25C21.5 3.94 21.3 3.66 21.01 3.55ZM17.82 4.82C17.58 5.06 17.41 5.32 17.25 5.67C17.09 5.32 16.92 5.06 16.68 4.82C16.44 4.58 16.18 4.41 15.83 4.25C16.18 4.09 16.44 3.92 16.68 3.68C16.92 3.44 17.09 3.18 17.25 2.83C17.41 3.18 17.58 3.44 17.82 3.68C18.06 3.92 18.32 4.09 18.67 4.25C18.32 4.41 18.06 4.58 17.82 4.82Z" fill="#CBD5E1"/>
</svg>
